<svg width="65" height="33" viewBox="0 0 65 33" fill="none" xmlns="http://www.w3.org/2000/svg">
<path d="M3.68 32.48C2.88 32.48 2.12 32.2667 1.4 31.84C0.706667 31.4133 0.36 30.8667 0.36 30.2C0.36 29.8533 0.413333 29.48 0.52 29.08C0.653333 28.68 0.773333 28.3067 0.88 27.96C1.70667 25.4267 2.48 23.0667 3.2 20.88C3.92 18.6667 4.64 16.5467 5.36 14.52C6.10667 12.4667 6.88 10.4133 7.68 8.36C8.50667 6.30666 9.42667 4.16 10.44 1.92C9.42667 2.13333 8.56 2.41333 7.84 2.76C7.12 3.08 6.53333 3.37333 6.08 3.64C5.62667 3.88 5.29333 4 5.08 4C4.94667 4 4.74667 3.90667 4.48 3.72C4.24 3.53333 4.02667 3.32 3.84 3.08C3.65333 2.84 3.56 2.62667 3.56 2.44C4.30667 2.12 5.17333 1.78666 6.16 1.44C7.17333 1.09333 8.26667 0.799999 9.44 0.559999C10.6133 0.319999 11.7867 0.199999 12.96 0.199999C14.2133 0.199999 15.4933 0.373332 16.8 0.719999C18.1067 1.04 19.3067 1.53333 20.4 2.2C21.52 2.84 22.4133 3.65333 23.08 4.64C23.7733 5.6 24.12 6.73333 24.12 8.04C24.12 9.45333 23.8 10.6667 23.16 11.68C22.52 12.6933 21.6667 13.5467 20.6 14.24C19.56 14.9333 18.4267 15.4933 17.2 15.92C15.9733 16.3467 14.7467 16.6667 13.52 16.88C12.32 17.0933 11.24 17.24 10.28 17.32C9.32 17.4 8.6 17.44 8.12 17.44H7.88C7.13333 20.08 6.4 22.72 5.68 25.36C4.96 27.9733 4.29333 30.3467 3.68 32.48ZM8.24 16.2C9.73333 16.0933 11.2267 15.84 12.72 15.44C14.2133 15.04 15.56 14.4933 16.76 13.8C17.9867 13.08 18.96 12.1867 19.68 11.12C20.4267 10.0533 20.8 8.81333 20.8 7.4C20.8 6.06667 20.44 4.98667 19.72 4.16C19.0267 3.33333 18.12 2.70667 17 2.28C15.9067 1.85333 14.7467 1.62667 13.52 1.6C12.56 3.46667 11.64 5.68 10.76 8.24C9.88 10.7733 9.04 13.4267 8.24 16.2ZM25.8118 31.436C24.6171 31.436 23.5624 31.1933 22.6478 30.708C21.7518 30.2413 21.0518 29.616 20.5478 28.832C20.0624 28.048 19.8198 27.18 19.8198 26.228C19.8198 25.388 19.9971 24.5667 20.3518 23.764C20.7064 22.9613 21.2011 22.224 21.8358 21.552C22.4704 20.88 23.2264 20.32 24.1038 19.872C24.9811 19.4053 25.9331 19.0973 26.9598 18.948C26.3064 18.3507 25.8024 17.688 25.4478 16.96C25.1118 16.232 24.9438 15.4947 24.9438 14.748C24.9438 13.74 25.1958 12.788 25.6998 11.892C26.2038 10.996 26.9131 10.268 27.8278 9.708C28.7611 9.148 29.8344 8.868 31.0478 8.868C32.1678 8.868 33.0171 9.13867 33.5958 9.68C34.1931 10.2027 34.4918 10.968 34.4918 11.976C34.4918 12.6853 34.3704 13.3853 34.1277 14.076C33.8851 14.748 33.5864 15.308 33.2318 15.756C32.8771 16.1853 32.5224 16.4 32.1678 16.4C31.9064 16.4 31.6544 16.288 31.4118 16.064C31.1878 15.8213 30.9918 15.5507 30.8238 15.252C31.5144 14.692 32.0838 14.104 32.5318 13.488C32.9984 12.872 33.2318 12.2373 33.2318 11.584C33.2318 11.0613 33.0824 10.6413 32.7838 10.324C32.4851 9.988 32.0091 9.82 31.3558 9.82C30.5158 9.82 29.8064 10.0627 29.2278 10.548C28.6491 11.0333 28.2104 11.668 27.9118 12.452C27.6131 13.2173 27.4638 14.0573 27.4638 14.972C27.4638 15.4013 27.5011 15.8773 27.5757 16.4C27.6691 16.9227 27.8651 17.4547 28.1638 17.996C28.4624 18.5187 28.9104 19.0227 29.5078 19.508C28.1638 19.7133 26.9971 20.18 26.0078 20.908C25.0184 21.6173 24.2531 22.448 23.7118 23.4C23.1704 24.352 22.8998 25.2947 22.8998 26.228C22.8998 26.788 23.0118 27.3667 23.2358 27.964C23.4784 28.5613 23.8704 29.0653 24.4118 29.476C24.9531 29.8867 25.6624 30.092 26.5397 30.092C27.5478 30.092 28.5091 29.8587 29.4238 29.392C30.3384 28.9253 31.1691 28.3 31.9158 27.516C32.6811 26.7133 33.3064 25.8173 33.7918 24.828C34.2771 23.8387 34.5851 22.8213 34.7158 21.776C34.3611 21.7947 34.0158 21.8227 33.6798 21.86C33.3624 21.8973 32.9891 21.9533 32.5598 22.028C32.1491 22.1027 31.5984 22.2053 30.9078 22.336C30.9264 21.384 31.2438 20.7493 31.8598 20.432C32.4758 20.1147 33.2131 19.956 34.0718 19.956C34.6691 19.956 35.2104 19.9933 35.6958 20.068C36.1998 20.1427 36.6944 20.2267 37.1798 20.32C37.6838 20.3947 38.2438 20.432 38.8598 20.432C38.5611 21.048 38.2904 21.4213 38.0478 21.552C37.8238 21.664 37.5998 21.72 37.3758 21.72C37.0398 21.72 36.7504 21.7293 36.5078 21.748C36.2838 21.748 36.0504 21.748 35.8077 21.748C35.6771 23.0173 35.3131 24.2307 34.7158 25.388C34.1371 26.5453 33.3904 27.5813 32.4758 28.496C31.5611 29.4107 30.5344 30.1293 29.3958 30.652C28.2571 31.1747 27.0624 31.436 25.8118 31.436ZM44.4783 32.48C43.5449 32.48 42.6516 32.3467 41.7983 32.08C40.9716 31.84 40.2516 31.3067 39.6383 30.48C39.7183 29.84 39.9049 28.9067 40.1983 27.68C40.5183 26.4533 40.9049 25.0667 41.3583 23.52C41.8116 21.9467 42.2916 20.3333 42.7983 18.68C43.3049 17.0267 43.7983 15.4533 44.2783 13.96C44.7849 12.44 45.2249 11.12 45.5983 10C45.9983 8.85333 46.2916 8.02667 46.4783 7.52C46.5583 7.30667 46.6916 6.98667 46.8783 6.56C47.0649 6.13333 47.3049 5.69333 47.5983 5.24C47.8916 4.78667 48.2249 4.41333 48.5983 4.12C48.9983 3.8 49.4249 3.64 49.8783 3.64C50.3316 3.64 50.8383 3.82667 51.3983 4.2C50.5716 6.06667 49.7316 8.14667 48.8783 10.44C48.0516 12.7067 47.2516 15.0533 46.4783 17.48C45.7316 19.88 45.0383 22.2267 44.3983 24.52C43.7849 26.7867 43.2783 28.8667 42.8783 30.76C43.0916 30.84 43.3849 30.8933 43.7583 30.92C44.1583 30.9733 44.5316 31 44.8783 31C46.6116 31 48.2649 30.5733 49.8383 29.72C51.4116 28.8933 52.8516 27.7867 54.1583 26.4C55.4916 24.9867 56.6516 23.4133 57.6383 21.68C58.6249 19.92 59.3849 18.12 59.9183 16.28C60.4516 14.44 60.7183 12.68 60.7183 11C60.7183 8.84 60.3449 7.09333 59.5983 5.76C58.8783 4.4 57.8783 3.41333 56.5983 2.8C55.3183 2.16 53.8516 1.84 52.1983 1.84C50.4649 1.84 48.9049 2.16 47.5183 2.8C46.1316 3.41333 45.0383 4.26667 44.2383 5.36C43.4649 6.42667 43.0783 7.65333 43.0783 9.04C43.0783 9.33333 43.1049 9.65333 43.1583 10C43.2116 10.32 43.3049 10.64 43.4383 10.96C42.2916 10.96 41.4649 10.72 40.9583 10.24C40.4783 9.73333 40.2383 9.12 40.2383 8.4C40.2383 7.46667 40.5716 6.52 41.2383 5.56C41.9316 4.6 42.8783 3.72 44.0783 2.92C45.3049 2.09333 46.7183 1.44 48.3183 0.959999C49.9183 0.453332 51.6516 0.199999 53.5183 0.199999C56.1316 0.199999 58.2249 0.706665 59.7983 1.72C61.3716 2.70667 62.5049 4.05333 63.1983 5.76C63.9183 7.44 64.2783 9.32 64.2783 11.4C64.2783 13.6933 63.9049 15.8933 63.1583 18C62.4383 20.08 61.4249 22 60.1183 23.76C58.8383 25.52 57.3449 27.0533 55.6383 28.36C53.9583 29.6667 52.1583 30.68 50.2383 31.4C48.3449 32.12 46.4249 32.48 44.4783 32.48Z" fill="#8447FF"/>
</svg>
