<svg width="28" height="25" viewBox="0 0 28 25" fill="none" xmlns="http://www.w3.org/2000/svg">
<path d="M0.875012 16.0995C0.626512 16.0995 0.418845 16.0155 0.252012 15.8475C0.0851787 15.6795 0.00117865 15.4712 1.19863e-05 15.2227C-0.00115468 14.9742 0.0828454 14.7666 0.252012 14.5997C0.421179 14.4329 0.628845 14.3495 0.875012 14.3495H11.375C11.6235 14.3495 11.8312 14.4335 11.998 14.6015C12.1648 14.7695 12.2488 14.9777 12.25 15.2262C12.2512 15.4747 12.1672 15.6824 11.998 15.8492C11.8288 16.0161 11.6212 16.0995 11.375 16.0995H0.875012ZM0.875012 9.09948C0.626512 9.09948 0.418845 9.01548 0.252012 8.84748C0.0851787 8.67948 0.00117865 8.47123 1.19863e-05 8.22273C-0.00115468 7.97423 0.0828454 7.76657 0.252012 7.59973C0.421179 7.4329 0.628845 7.34948 0.875012 7.34948H18.375C18.6235 7.34948 18.8312 7.43348 18.998 7.60148C19.1648 7.76948 19.2488 7.97773 19.25 8.22623C19.2512 8.47473 19.1672 8.6824 18.998 8.84923C18.8288 9.01607 18.6212 9.09948 18.375 9.09948H0.875012ZM0.875012 2.09949C0.626512 2.09949 0.418845 2.01549 0.252012 1.84749C0.0851787 1.67949 0.00117865 1.47124 1.19863e-05 1.22274C-0.00115468 0.974237 0.0828454 0.766571 0.252012 0.599737C0.421179 0.432904 0.628845 0.349487 0.875012 0.349487H18.375C18.6235 0.349487 18.8312 0.433487 18.998 0.601487C19.1648 0.769487 19.2488 0.977737 19.25 1.22624C19.2512 1.47474 19.1672 1.6824 18.998 1.84924C18.8288 2.01607 18.6212 2.09949 18.375 2.09949H0.875012ZM14.4025 23.4355V21.5595C14.4025 21.381 14.4358 21.2083 14.5023 21.0415C14.5664 20.8735 14.6749 20.7131 14.8278 20.5602L23.7353 11.6965C23.9091 11.5448 24.0876 11.434 24.2708 11.364C24.4539 11.294 24.6377 11.2578 24.822 11.2555C25.0227 11.2555 25.2198 11.2928 25.4135 11.3675C25.6072 11.4433 25.7827 11.5565 25.9402 11.707L27.559 13.359C27.7025 13.5316 27.8122 13.7113 27.888 13.898C27.9627 14.0835 28 14.2696 28 14.4562C28 14.6429 27.9697 14.8307 27.909 15.0197C27.8483 15.2087 27.7317 15.3896 27.559 15.5622L18.6953 24.4277C18.5424 24.5794 18.382 24.6879 18.214 24.7532C18.0472 24.8186 17.8739 24.8512 17.6943 24.8512H15.8165C15.4163 24.8512 15.0809 24.7159 14.8103 24.4452C14.5396 24.1746 14.4043 23.8386 14.4043 23.4372M24.8342 16.1275L26.453 14.4545L24.8342 12.8025L23.1717 14.465L24.8342 16.1275ZM15.953 23.3025H17.6155L23.6828 17.2247L22.8603 16.3935L22.064 15.5395L15.953 21.64V23.3025ZM15.953 23.3025V21.64L22.064 15.5395L23.6828 17.2247L17.6155 23.3025H15.953Z" fill="#B5B5B5"/>
</svg>
