<svg width="26" height="27" viewBox="0 0 26 27" fill="none" xmlns="http://www.w3.org/2000/svg">
<path d="M1.25 0C0.697715 0 0.25 0.447715 0.25 1C0.25 1.55228 0.697715 2 1.25 2V0ZM4.25 1L5.20283 0.696482C5.07069 0.281663 4.68536 0 4.25 0V1ZM9.506 17.5L8.55317 17.8035C8.68531 18.2183 9.07064 18.5 9.506 18.5V17.5ZM21.5 18.5C22.0523 18.5 22.5 18.0523 22.5 17.5C22.5 16.9477 22.0523 16.5 21.5 16.5V18.5ZM8.33595 13.75L7.38371 14.0554C7.51643 14.4692 7.9013 14.75 8.33595 14.75V13.75ZM5.44995 4.75V3.75C5.13053 3.75 4.83032 3.9026 4.64207 4.16066C4.45382 4.41872 4.40017 4.75118 4.49771 5.05535L5.44995 4.75ZM24.2104 4.75L24.2104 5.75L24.2117 5.75L24.2104 4.75ZM24.9229 5.737L25.8716 6.05329L25.8717 6.053L24.9229 5.737ZM22.4224 13.237L21.4738 12.9207L21.4737 12.921L22.4224 13.237ZM21.7115 13.75L21.7115 14.75L21.7122 14.75L21.7115 13.75ZM12.25 23.5C12.25 24.1904 11.6904 24.75 11 24.75V26.75C12.7949 26.75 14.25 25.2949 14.25 23.5H12.25ZM11 24.75C10.3096 24.75 9.75 24.1904 9.75 23.5H7.75C7.75 25.2949 9.20507 26.75 11 26.75V24.75ZM9.75 23.5C9.75 22.8096 10.3096 22.25 11 22.25V20.25C9.20507 20.25 7.75 21.7051 7.75 23.5H9.75ZM11 22.25C11.6904 22.25 12.25 22.8096 12.25 23.5H14.25C14.25 21.7051 12.7949 20.25 11 20.25V22.25ZM22.75 23.5C22.75 24.1904 22.1904 24.75 21.5 24.75V26.75C23.2949 26.75 24.75 25.2949 24.75 23.5H22.75ZM21.5 24.75C20.8096 24.75 20.25 24.1904 20.25 23.5H18.25C18.25 25.2949 19.7051 26.75 21.5 26.75V24.75ZM20.25 23.5C20.25 22.8096 20.8096 22.25 21.5 22.25V20.25C19.7051 20.25 18.25 21.7051 18.25 23.5H20.25ZM21.5 22.25C22.1904 22.25 22.75 22.8096 22.75 23.5H24.75C24.75 21.7051 23.2949 20.25 21.5 20.25V22.25ZM1.25 2H4.25V0H1.25V2ZM3.29717 1.30352L8.55317 17.8035L10.4588 17.1965L5.20283 0.696482L3.29717 1.30352ZM9.506 18.5H21.5V16.5H9.506V18.5ZM9.28819 13.4446L6.40219 4.44465L4.49771 5.05535L7.38371 14.0554L9.28819 13.4446ZM5.44995 5.75H24.2104V3.75H5.44995V5.75ZM24.2117 5.75C24.1721 5.75005 24.133 5.74067 24.0977 5.72265L25.0073 3.94146C24.7602 3.81528 24.4866 3.74966 24.2092 3.75L24.2117 5.75ZM24.0977 5.72265C24.0624 5.70463 24.0319 5.67847 24.0087 5.64633L25.6303 4.47571C25.4679 4.25075 25.2544 4.06763 25.0073 3.94146L24.0977 5.72265ZM24.0087 5.64633C23.9855 5.61418 23.9703 5.57699 23.9643 5.53782L25.9412 5.23524C25.8993 4.96101 25.7927 4.70067 25.6303 4.47571L24.0087 5.64633ZM23.9643 5.53782C23.9583 5.49865 23.9617 5.45861 23.9742 5.421L25.8717 6.053C25.9594 5.78977 25.9832 5.50948 25.9412 5.23524L23.9643 5.53782ZM23.9743 5.42072L21.4738 12.9207L23.3711 13.5533L25.8716 6.05329L23.9743 5.42072ZM21.4737 12.921C21.4903 12.8712 21.5221 12.828 21.5646 12.7973L22.7348 14.4192C23.0326 14.2043 23.2552 13.9013 23.3712 13.553L21.4737 12.921ZM21.5646 12.7973C21.6071 12.7666 21.6582 12.75 21.7107 12.75L21.7122 14.75C22.0794 14.7497 22.4371 14.634 22.7348 14.4192L21.5646 12.7973ZM21.7115 12.75H8.33595V14.75H21.7115V12.75Z" fill="#515151"/>
</svg>
