<svg width="100%" height="100%" viewBox="0 0 28 31" fill="none" xmlns="http://www.w3.org/2000/svg">
<path d="M0 28.9851V11.4711C0 10.9553 0.114667 10.467 0.344 10.0062C0.573333 9.54549 0.889333 9.16601 1.292 8.86779L12.062 0.65083C12.626 0.216944 13.27 0 13.994 0C14.718 0 15.366 0.216944 15.938 0.65083L26.708 8.86578C27.112 9.16399 27.428 9.54415 27.656 10.0062C27.8853 10.467 28 10.9553 28 11.4711V28.9851C28 29.5251 27.8007 29.9959 27.402 30.3975C27.0033 30.7992 26.536 31 26 31H19.232C18.7733 31 18.3893 30.8442 18.08 30.5325C17.7707 30.2195 17.616 29.8327 17.616 29.3719V19.7626C17.616 19.3019 17.4613 18.9157 17.152 18.604C16.8413 18.291 16.4573 18.1345 16 18.1345H12C11.5427 18.1345 11.1593 18.291 10.85 18.604C10.5393 18.9157 10.384 19.3019 10.384 19.7626V29.3739C10.384 29.8347 10.2293 30.2209 9.92 30.5325C9.61067 30.8442 9.22733 31 8.77 31H2C1.464 31 0.996666 30.7992 0.598 30.3975C0.199333 29.9959 0 29.5251 0 28.9851Z" fill="white"/>
</svg>
