<svg width="100%" height="100%" viewBox="0 0 28 28" fill="none" xmlns="http://www.w3.org/2000/svg">
<path d="M25.8435 10.1407V1.43575C25.8435 1.05497 25.6923 0.689778 25.423 0.420522C25.1538 0.151266 24.7886 0 24.4078 0H22.972C20.1307 2.84135 14.7926 4.43217 11.486 5.18737V20.6562C14.7926 21.4114 20.1307 23.0022 22.972 25.8435H24.4078C24.7886 25.8435 25.1538 25.6923 25.423 25.423C25.6923 25.1538 25.8435 24.7886 25.8435 24.4078V15.7028C26.4606 15.5442 27.0073 15.1848 27.3977 14.6814C27.7881 14.1779 28 13.5589 28 12.9218C28 12.2847 27.7881 11.6657 27.3977 11.1622C27.0073 10.6587 26.4606 10.2994 25.8435 10.1407ZM2.8715 5.74301C2.10993 5.74301 1.37956 6.04554 0.841044 6.58405C0.302533 7.12256 0 7.85294 0 8.61451V17.229C0 17.9906 0.302533 18.721 0.841044 19.2595C1.37956 19.798 2.10993 20.1005 2.8715 20.1005H4.30726L5.74301 27.2793H8.61451V5.74301H2.8715Z" fill="#B5B5B5"/>
</svg>
