<svg width="100%" height="100%" viewBox="0 0 28 25" fill="none" xmlns="http://www.w3.org/2000/svg">
<path d="M2.924 24.8512C2.252 24.8512 1.68 24.6152 1.208 24.1432C0.736 23.6712 0.5 23.0997 0.5 22.4287V6.0802C0.5 5.7882 0.5465 5.5132 0.6395 5.2552C0.7325 4.9972 0.8725 4.7597 1.0595 4.5427L3.3965 1.7377C3.6135 1.4447 3.885 1.2237 4.211 1.0747C4.537 0.925697 4.8865 0.851196 5.2595 0.851196H19.6835C20.0555 0.851196 20.4095 0.925697 20.7455 1.0747C21.0815 1.2237 21.358 1.4442 21.575 1.7362L23.9405 4.6012C24.1275 4.8182 24.2675 5.0607 24.3605 5.3287C24.4535 5.5957 24.5 5.8757 24.5 6.1687V9.6487C23.887 9.6877 23.317 9.8217 22.79 10.0507C22.265 10.2797 21.7725 10.6077 21.3125 11.0347L17 15.3472V6.5632H8V16.7452L12.5 14.4952L16.0745 16.2727L12.269 20.0392V24.8512H2.924ZM15.8465 24.8512V21.5362L23.846 13.5757C23.994 13.4457 24.1475 13.3507 24.3065 13.2907C24.4665 13.2287 24.6265 13.1977 24.7865 13.1977C24.9515 13.1977 25.1185 13.2297 25.2875 13.2937C25.4575 13.3587 25.6065 13.4557 25.7345 13.5847L27.122 15.0007C27.245 15.1487 27.339 15.3027 27.404 15.4627C27.468 15.6217 27.5 15.7812 27.5 15.9412C27.5 16.1012 27.474 16.2622 27.422 16.4242C27.37 16.5862 27.27 16.7412 27.122 16.8892L19.16 24.8512H15.8465ZM24.7865 17.3737L26.174 15.9397L24.7865 14.5252L23.3615 15.9502L24.7865 17.3737ZM2.57 5.0632H22.4L20.405 2.6692C20.308 2.5732 20.197 2.4962 20.072 2.4382C19.947 2.3802 19.817 2.3512 19.682 2.3512H5.288C5.154 2.3512 5.024 2.3802 4.898 2.4382C4.772 2.4962 4.662 2.5732 4.568 2.6692L2.57 5.0632Z" fill="#B5B5B5"/>
</svg>
