<svg width="100%" height="100%" viewBox="0 0 28 25" fill="none" xmlns="http://www.w3.org/2000/svg">
<path d="M15.2024 24.3495V20.7095L23.9878 11.9685C24.1503 11.8258 24.3177 11.7215 24.4901 11.6556C24.6625 11.5897 24.8355 11.5557 25.0089 11.5535C25.1978 11.5535 25.3834 11.5886 25.5656 11.6589C25.7479 11.7302 25.9132 11.8368 26.0614 11.9784L27.5849 13.5332C27.72 13.6957 27.8232 13.8648 27.8946 14.0405C27.9649 14.2151 28 14.3902 28 14.5659C28 14.7416 27.9715 14.9184 27.9144 15.0963C27.8573 15.2742 27.7474 15.4444 27.5849 15.6069L18.8424 24.3495H15.2024ZM0 22.0699V19.3572C0 18.6775 0.197647 18.0418 0.592941 17.4499C0.989334 16.857 1.52188 16.3969 2.19059 16.0697C3.74541 15.3241 5.30133 14.7652 6.85835 14.393C8.41427 14.0197 9.97129 13.833 11.5294 13.833C12.2706 13.833 13.014 13.8791 13.7595 13.9713C14.5051 14.0636 15.2556 14.1942 16.0111 14.3633L11.2758 19.0657V22.0699H0ZM25.0188 16.1405L26.5424 14.5659L25.0205 13.0111L23.4558 14.5758L25.0188 16.1405ZM11.5294 10.16C10.1711 10.16 9.00776 9.67581 8.03929 8.70734C7.07082 7.73887 6.58714 6.57605 6.58824 5.21887C6.58933 3.8617 7.07302 2.69777 8.03929 1.72711C9.00557 0.756441 10.1689 0.273853 11.5294 0.279343C12.8899 0.284833 14.0533 0.76797 15.0195 1.72875C15.9858 2.68954 16.4695 3.85346 16.4706 5.22052C16.4717 6.58758 15.988 7.7504 15.0195 8.70899C14.0511 9.66758 12.8877 10.1502 11.5294 10.16Z" fill="#B5B5B5"/>
</svg>
